<svg width="615" height="707" viewBox="0 0 615 707" fill="none" xmlns="http://www.w3.org/2000/svg">
<g clip-path="url(#clip0_21_32)">
<path d="M112 46L123.226 80.5491H159.553L130.164 101.902L141.389 136.451L112 115.098L82.6107 136.451L93.8364 101.902L64.4472 80.5491H100.774L112 46Z" fill="#F6A3A3"/>
<path d="M112 196L123.226 230.549H159.553L130.164 251.902L141.389 286.451L112 265.098L82.6107 286.451L93.8364 251.902L64.4472 230.549H100.774L112 196Z" fill="#F6A3A3"/>
<path d="M258 196L269.226 230.549H305.553L276.164 251.902L287.389 286.451L258 265.098L228.611 286.451L239.836 251.902L210.447 230.549H246.774L258 196Z" fill="#F6A3A3"/>
<path d="M258 346L269.226 380.549H305.553L276.164 401.902L287.389 436.451L258 415.098L228.611 436.451L239.836 401.902L210.447 380.549H246.774L258 346Z" fill="#F6A3A3"/>
<path d="M404 346L415.226 380.549H451.553L422.164 401.902L433.389 436.451L404 415.098L374.611 436.451L385.836 401.902L356.447 380.549H392.774L404 346Z" fill="#F6A3A3"/>
<path d="M550 346L561.226 380.549H597.553L568.164 401.902L579.389 436.451L550 415.098L520.611 436.451L531.836 401.902L502.447 380.549H538.774L550 346Z" fill="#F6A3A3"/>
<path d="M550 196L561.226 230.549H597.553L568.164 251.902L579.389 286.451L550 265.098L520.611 286.451L531.836 251.902L502.447 230.549H538.774L550 196Z" fill="#F6A3A3"/>
<path d="M404 196L415.226 230.549H451.553L422.164 251.902L433.389 286.451L404 265.098L374.611 286.451L385.836 251.902L356.447 230.549H392.774L404 196Z" fill="#F6A3A3"/>
<path d="M112 346L123.226 380.549H159.553L130.164 401.902L141.389 436.451L112 415.098L82.6107 436.451L93.8364 401.902L64.4472 380.549H100.774L112 346Z" fill="#F6A3A3"/>
<path d="M112 496L123.226 530.549H159.553L130.164 551.902L141.389 586.451L112 565.098L82.6107 586.451L93.8364 551.902L64.4472 530.549H100.774L112 496Z" fill="#F6A3A3"/>
<path d="M258 496L269.226 530.549H305.553L276.164 551.902L287.389 586.451L258 565.098L228.611 586.451L239.836 551.902L210.447 530.549H246.774L258 496Z" fill="#F6A3A3"/>
<path d="M404 496L415.226 530.549H451.553L422.164 551.902L433.389 586.451L404 565.098L374.611 586.451L385.836 551.902L356.447 530.549H392.774L404 496Z" fill="#F6A3A3"/>
<path d="M547 496L558.226 530.549H594.553L565.164 551.902L576.389 586.451L547 565.098L517.611 586.451L528.836 551.902L499.447 530.549H535.774L547 496Z" fill="#F6A3A3"/>
<path d="M257 46L268.226 80.5491H304.553L275.164 101.902L286.389 136.451L257 115.098L227.611 136.451L238.836 101.902L209.447 80.5491H245.774L257 46Z" fill="#F6A3A3"/>
<path d="M403 46L414.226 80.5491H450.553L421.164 101.902L432.389 136.451L403 115.098L373.611 136.451L384.836 101.902L355.447 80.5491H391.774L403 46Z" fill="#F6A3A3"/>
<path d="M549 46L560.226 80.5491H596.553L567.164 101.902L578.389 136.451L549 115.098L519.611 136.451L530.836 101.902L501.447 80.5491H537.774L549 46Z" fill="#F6A3A3"/>
</g>
<defs>
<clipPath id="clip0_21_32">
<rect width="615" height="707" fill="white"/>
</clipPath>
</defs>
</svg>
