<svg width="32" height="32" viewBox="0 0 32 32" fill="none" xmlns="http://www.w3.org/2000/svg">
<path d="M18.6667 4.66699C18.6667 5.77366 17.7733 6.66699 16.6667 6.66699C15.56 6.66699 14.6667 5.77366 14.6667 4.66699C14.6667 3.56033 15.56 2.66699 16.6667 2.66699C17.7733 2.66699 18.6667 3.56033 18.6667 4.66699ZM11.3333 6.66699C10.2267 6.66699 9.33333 7.56033 9.33333 8.66699C9.33333 9.77366 10.2267 10.667 11.3333 10.667C12.44 10.667 13.3333 9.77366 13.3333 8.66699C13.3333 7.56033 12.44 6.66699 11.3333 6.66699ZM18.6667 16.0003L17.6267 13.0003H21.5733L24.4533 11.5603C24.9467 11.3337 25.1467 10.7203 24.8933 10.227C24.8369 10.1085 24.7573 10.0024 24.6593 9.91516C24.5612 9.8279 24.4466 9.76117 24.3224 9.71891C24.1981 9.67665 24.0666 9.65972 23.9356 9.66913C23.8047 9.67853 23.677 9.71407 23.56 9.77366L22.4667 10.3203L21.8133 9.20033C21.4267 8.33366 20.48 7.84033 19.5467 8.05366L16.2533 8.76033C15.3333 8.96033 14.6667 9.80032 14.6667 10.7603V11.6937L11.4267 13.8537H11.44C11.3333 13.947 11.1867 14.067 11.1067 14.227L9.92 16.587L7.54667 17.7737C7.05333 18.0003 6.85333 18.627 7.10667 19.1203C7.22734 19.3568 7.43678 19.5359 7.68916 19.6184C7.94154 19.7008 8.2163 19.68 8.45333 19.5603L11.4133 18.0803L12.8 15.3337L14.6667 17.3337C13.3333 21.3337 4 26.667 4 26.667C4 26.667 9.33333 29.3337 16 29.3337C22.6667 29.3337 28 26.667 28 26.667C28 26.667 21.3333 21.3337 18.6667 16.0003ZM22.4667 14.787L22.04 15.0003H20.44L20.52 15.2137C21.2133 16.587 22.2267 18.0003 23.3333 19.2537L22.6267 14.707L22.4667 14.787Z" fill="#F92733"/>
</svg>
