<svg width="128" height="128" viewBox="0 0 128 128" fill="none" xmlns="http://www.w3.org/2000/svg">
<g clip-path="url(#clip0_23_86)">
<path d="M96.56 33.9998C83.6 33.9998 72.56 41.5198 64 56.3198C55.36 41.5198 44.4 33.9998 31.44 33.9998C27.4055 33.9042 23.3917 34.6044 19.6279 36.0604C15.8641 37.5165 12.4241 39.6999 9.50438 42.4859C6.58468 45.2719 4.24252 48.6058 2.61173 52.2973C0.980929 55.9887 0.0934509 59.9653 0 63.9998C0.0934509 68.0344 0.980929 72.011 2.61173 75.7024C4.24252 79.3939 6.58468 82.7278 9.50438 85.5138C12.4241 88.2998 15.8641 90.4832 19.6279 91.9392C23.3917 93.3953 27.4055 94.0955 31.44 93.9998C44.4 93.9998 55.44 86.4798 64 71.6798C72.64 86.4798 83.6 93.9998 96.56 93.9998C100.594 94.0955 104.608 93.3953 108.372 91.9392C112.136 90.4832 115.576 88.2998 118.496 85.5138C121.415 82.7278 123.757 79.3939 125.388 75.7024C127.019 72.011 127.907 68.0344 128 63.9998C127.907 59.9653 127.019 55.9887 125.388 52.2973C123.757 48.6058 121.415 45.2719 118.496 42.4859C115.576 39.6999 112.136 37.5165 108.372 36.0604C104.608 34.6044 100.594 33.9042 96.56 33.9998ZM31.44 83.9998C25.9496 84.1728 20.6136 82.1669 16.5968 78.4199C12.58 74.6729 10.2086 69.489 10 63.9998C10.2086 58.5106 12.58 53.3268 16.5968 49.5798C20.6136 45.8328 25.9496 43.8269 31.44 43.9998C41.44 43.9998 49.76 50.5598 56.88 63.9998C49.76 77.4398 41.44 83.9998 31.44 83.9998ZM96.56 83.9998C86.56 83.9998 78.24 77.4398 71.12 63.9998C78.24 50.5598 86.56 43.9998 96.56 43.9998C102.05 43.8269 107.386 45.8328 111.403 49.5798C115.42 53.3268 117.791 58.5106 118 63.9998C117.791 69.489 115.42 74.6729 111.403 78.4199C107.386 82.1669 102.05 84.1728 96.56 83.9998Z" fill="#F92733"/>
</g>
<defs>
<clipPath id="clip0_23_86">
<rect width="128" height="128" fill="white"/>
</clipPath>
</defs>
</svg>
