<svg width="250" height="186" viewBox="0 0 250 186" fill="none" xmlns="http://www.w3.org/2000/svg">
<path d="M145.833 27.125C145.833 33.5575 138.854 38.75 130.208 38.75C121.563 38.75 114.583 33.5575 114.583 27.125C114.583 20.6925 121.563 15.5 130.208 15.5C138.854 15.5 145.833 20.6925 145.833 27.125ZM88.5417 38.75C79.8958 38.75 72.9167 43.9425 72.9167 50.375C72.9167 56.8075 79.8958 62 88.5417 62C97.1875 62 104.167 56.8075 104.167 50.375C104.167 43.9425 97.1875 38.75 88.5417 38.75ZM145.833 93L137.708 75.5625H168.542L191.042 67.1925C194.896 65.875 196.458 62.31 194.479 59.4425C194.038 58.7535 193.417 58.1372 192.651 57.63C191.884 57.1228 190.989 56.7349 190.018 56.4893C189.047 56.2436 188.02 56.1453 186.997 56.1999C185.974 56.2546 184.976 56.4612 184.063 56.8075L175.521 59.985L170.417 53.475C167.396 48.4375 160 45.57 152.708 46.81L126.979 50.9175C119.792 52.08 114.583 56.9625 114.583 62.5425V67.9675L89.2708 80.5225H89.375C88.5417 81.065 87.3958 81.7625 86.7708 82.6925L77.5 96.41L58.9583 103.307C55.1042 104.625 53.5417 108.268 55.5208 111.135C56.4636 112.51 58.0998 113.551 60.0715 114.03C62.0433 114.509 64.1899 114.388 66.0417 113.693L89.1667 105.09L100 89.125L114.583 100.75C104.167 124 31.25 155 31.25 155C31.25 155 72.9167 170.5 125 170.5C177.083 170.5 218.75 155 218.75 155C218.75 155 166.667 124 145.833 93ZM175.521 85.9475L172.188 87.1875H159.688L160.313 88.4275C165.729 96.41 173.646 104.625 182.292 111.91L176.771 85.4825L175.521 85.9475Z" fill="#F92733"/>
</svg>
